<svg version="1.1" xmlns="http://www.w3.org/2000/svg" xmlns:xlink="http://www.w3.org/1999/xlink" x="0px" y="0px" viewBox="0 0 64 64" xml:space="preserve"><g class="nc-icon-wrapper" fill="#2a2c36"><path data-color="color-2" d="M25.064,14.309c0,0,1.27,16.948,2.276,19.515c1.006,2.567,3.912,3.837,6.479,2.831 s3.837-3.912,2.831-6.479C35.645,27.609,25.064,14.309,25.064,14.309z"/> <path data-color="color-2" d="M32,15c0.552,0,1-0.448,1-1v-4c0-0.552-0.448-1-1-1s-1,0.448-1,1v4 C31,14.552,31.448,15,32,15z"/> <path data-color="color-2" d="M46.849,15.737l-2.828,2.828c-0.391,0.391-0.391,1.023,0,1.414 c0.195,0.195,0.451,0.293,0.707,0.293s0.512-0.098,0.707-0.293l2.828-2.828c0.391-0.391,0.391-1.023,0-1.414 S47.24,15.346,46.849,15.737z"/> <path data-color="color-2" d="M54,31h-4c-0.552,0-1,0.448-1,1s0.448,1,1,1h4c0.552,0,1-0.448,1-1S54.552,31,54,31z"/> <path data-color="color-2" d="M17.151,15.737c-0.391-0.391-1.023-0.391-1.414,0s-0.391,1.023,0,1.414l2.828,2.828 c0.195,0.195,0.451,0.293,0.707,0.293s0.512-0.098,0.707-0.293c0.391-0.391,0.391-1.023,0-1.414L17.151,15.737z"/> <path data-color="color-2" d="M14,31h-4c-0.552,0-1,0.448-1,1s0.448,1,1,1h4c0.552,0,1-0.448,1-1S14.552,31,14,31z"/> <path fill="#2a2c36" d="M32,1C14.906,1,1,14.907,1,32s13.906,31,31,31s31-13.907,31-31S49.094,1,32,1z M5.165,43 C3.773,39.607,3,35.895,3,32C3,15.984,15.984,3,32,3c16.016,0,29,12.984,29,29c0,3.895-0.773,7.607-2.165,11H5.165z"/></g></svg>